<svg version="1.1" id="Layer_1" xmlns="http://www.w3.org/2000/svg" xmlns:xlink="http://www.w3.org/1999/xlink" x="0px" y="0px"
	 width="100%" viewBox="0 0 52 52" enable-background="new 0 0 52 52" xml:space="preserve">
<path fill="#000000" opacity="1.000000" stroke="none" 
	d="
M53.000000,27.000000 
	C53.000000,35.545559 53.000000,44.091122 53.000000,53.000000 
	C50.338337,53.000000 47.660217,53.000000 44.191658,52.660439 
	C43.926163,51.500622 44.989635,50.594219 44.874794,49.876308 
	C44.533882,47.745182 44.333576,44.849598 42.933750,43.840351 
	C41.558140,42.848560 37.935944,42.979610 36.833847,44.111626 
	C35.489033,45.492947 35.656960,48.420555 35.358307,50.703960 
	C35.263493,51.428932 35.769135,52.232433 36.000000,53.000000 
	C32.969406,53.000000 29.938814,53.000000 26.154728,52.660439 
	C25.926170,51.500614 26.989645,50.594208 26.874802,49.876301 
	C26.533884,47.745178 26.333572,44.849598 24.933750,43.840351 
	C23.558138,42.848560 19.935940,42.979603 18.833843,44.111618 
	C17.489027,45.492939 17.656960,48.420547 17.358311,50.703957 
	C17.263491,51.428925 17.769133,52.232433 18.000000,53.000000 
	C12.374294,53.000000 6.748588,53.000000 1.000000,53.000000 
	C1.000000,38.645969 1.000000,24.291643 1.399248,9.468765 
	C5.357547,9.404814 8.375992,10.344689 9.029366,14.643255 
	C9.899046,20.364912 10.966411,26.057943 12.025979,31.748913 
	C13.086821,37.446728 17.438969,40.978203 23.291222,40.998329 
	C26.110764,41.008030 29.002842,40.590267 31.736872,41.073883 
	C41.423656,42.787354 47.104809,38.550465 50.124199,29.624752 
	C50.488209,28.548697 52.013138,27.865356 53.000000,27.000000 
z"/>
<path fill="#000000" opacity="1.000000" stroke="none" 
	d="
M1.000000,3.000000 
	C1.641840,2.333333 2.270795,1.102506 2.927520,1.087507 
	C9.303164,0.941889 15.683464,1.000000 22.531216,1.456817 
	C23.328459,6.579582 23.656919,11.245531 24.058346,16.947996 
	C26.545521,15.358269 28.164062,14.323746 29.728228,13.323979 
	C34.203232,17.017221 34.409130,21.790131 32.670990,27.296236 
	C39.438950,23.890654 41.932339,12.940155 35.883480,8.075414 
	C36.664062,5.465973 37.332031,3.232987 38.000000,1.000000 
	C42.930016,1.000000 47.860031,1.000000 53.000000,1.000000 
	C53.000000,6.351796 53.000000,11.705444 52.674812,17.845467 
	C49.252243,16.942858 47.705391,18.418335 46.278721,21.180679 
	C44.156967,25.288858 41.671059,29.211470 39.270378,33.170765 
	C38.838829,33.882492 38.082718,34.895760 37.456123,34.910587 
	C33.154255,35.012402 28.805040,35.233982 24.554626,34.722561 
	C21.117464,34.308994 19.257713,32.100163 18.871454,28.179087 
	C18.322113,22.602491 17.262699,17.009647 15.753021,11.610583 
	C13.760810,4.485830 11.576579,2.498491 4.482575,2.988775 
	C3.326978,3.068641 2.161117,3.000000 1.000000,3.000000 
z"/>
<path fill="#FFFFFF" opacity="1.000000" stroke="none" 
	d="
M1.000000,3.428462 
	C2.161117,3.000000 3.326978,3.068641 4.482575,2.988775 
	C11.576579,2.498491 13.760810,4.485830 15.753021,11.610583 
	C17.262699,17.009647 18.322113,22.602491 18.871454,28.179087 
	C19.257713,32.100163 21.117464,34.308994 24.554626,34.722561 
	C28.805040,35.233982 33.154255,35.012402 37.456123,34.910587 
	C38.082718,34.895760 38.838829,33.882492 39.270378,33.170765 
	C41.671059,29.211470 44.156967,25.288858 46.278721,21.180679 
	C47.705391,18.418335 49.252243,16.942858 52.674812,18.315918 
	C53.000000,20.700014 53.000000,23.400026 53.000000,26.550020 
	C52.013138,27.865356 50.488209,28.548697 50.124199,29.624752 
	C47.104809,38.550465 41.423656,42.787354 31.736872,41.073883 
	C29.002842,40.590267 26.110764,41.008030 23.291222,40.998329 
	C17.438969,40.978203 13.086821,37.446728 12.025979,31.748913 
	C10.966411,26.057943 9.899046,20.364912 9.029366,14.643255 
	C8.375992,10.344689 5.357547,9.404814 1.399248,9.000109 
	C1.000000,7.285642 1.000000,5.571283 1.000000,3.428462 
z"/>
<path fill="#FFFFFF" opacity="1.000000" stroke="none" 
	d="
M37.533882,1.000000 
	C37.332031,3.232987 36.664062,5.465973 35.883480,8.075414 
	C41.932339,12.940155 39.438950,23.890654 32.670990,27.296236 
	C34.409130,21.790131 34.203232,17.017221 29.728228,13.323979 
	C28.164062,14.323746 26.545521,15.358269 24.058346,16.947996 
	C23.656919,11.245531 23.328459,6.579582 23.000000,1.456817 
	C27.689257,1.000000 32.378513,1.000000 37.533882,1.000000 
z"/>
<path fill="#FFFFFF" opacity="1.000000" stroke="none" 
	d="
M18.444164,53.000000 
	C17.769133,52.232433 17.263491,51.428925 17.358311,50.703957 
	C17.656960,48.420547 17.489027,45.492939 18.833843,44.111618 
	C19.935940,42.979603 23.558138,42.848560 24.933750,43.840351 
	C26.333572,44.849598 26.533884,47.745178 26.874802,49.876301 
	C26.989645,50.594208 25.926170,51.500614 25.700617,52.660439 
	C23.629442,53.000000 21.258884,53.000000 18.444164,53.000000 
z"/>
<path fill="#FFFFFF" opacity="1.000000" stroke="none" 
	d="
M36.444164,53.000000 
	C35.769135,52.232433 35.263493,51.428932 35.358307,50.703960 
	C35.656960,48.420555 35.489033,45.492947 36.833847,44.111626 
	C37.935944,42.979610 41.558140,42.848560 42.933750,43.840351 
	C44.333576,44.849598 44.533882,47.745182 44.874794,49.876308 
	C44.989635,50.594219 43.926163,51.500622 43.700611,52.660439 
	C41.629444,53.000000 39.258884,53.000000 36.444164,53.000000 
z"/>
</svg>