<svg xmlns="http://www.w3.org/2000/svg" xmlns:xlink="http://www.w3.org/1999/xlink" viewBox="0,0,256,256" width="100px" height="100px" fill-rule="nonzero"><g fill="#a3aab3" fill-rule="nonzero" stroke="none" stroke-width="1" stroke-linecap="butt" stroke-linejoin="miter" stroke-miterlimit="10" stroke-dasharray="" stroke-dashoffset="0" font-family="none" font-weight="none" font-size="none" text-anchor="none" style="mix-blend-mode: normal"><g transform="scale(10.66667,10.66667)"><path d="M5.75,3c-0.35548,0.00019 -0.68414,0.18906 -0.86328,0.49609l-1.75,3c-0.08939,0.1529 -0.13657,0.32679 -0.13672,0.50391v12c0,1.09306 0.90694,2 2,2h14c1.09306,0 2,-0.90694 2,-2v-12c-0.00015,-0.17711 -0.04733,-0.35101 -0.13672,-0.50391l-1.75,-3c-0.17914,-0.30704 -0.5078,-0.4959 -0.86328,-0.49609zM6.32422,5h11.35156l1.16602,2h-13.68359zM5,9h14v10h-14zM9,11v2h6v-2z"></path></g></g></svg>