<?xml version="1.0" encoding="UTF-8"?>
<svg xmlns="http://www.w3.org/2000/svg" xmlns:xlink="http://www.w3.org/1999/xlink" width="24px" height="23px" viewBox="0 0 24 23" version="1.1">
<g id="surface1">
<path style=" stroke:none;fill-rule:nonzero;fill:rgb(0%,0%,0%);fill-opacity:1;" d="M 4.273438 1.488281 C 4.015625 1.535156 3.613281 1.710938 3.390625 1.875 C 3.125 2.066406 2.828125 2.488281 2.71875 2.816406 C 2.625 3.105469 2.625 3.222656 2.625 10.445312 C 2.625 17.699219 2.625 17.785156 2.71875 18.078125 C 2.898438 18.625 3.359375 19.085938 3.976562 19.324219 L 4.242188 19.429688 L 8.574219 19.441406 L 12.910156 19.457031 L 12.417969 18.96875 C 12.148438 18.699219 11.859375 18.378906 11.769531 18.25 L 11.617188 18.015625 L 4.515625 18.015625 L 4.355469 17.910156 C 4.265625 17.851562 4.171875 17.738281 4.140625 17.65625 C 4.058594 17.429688 4.058594 3.457031 4.140625 3.234375 C 4.171875 3.148438 4.265625 3.035156 4.355469 2.976562 L 4.515625 2.875 L 10.660156 2.875 C 15.484375 2.875 16.828125 2.886719 16.921875 2.933594 C 16.984375 2.964844 17.085938 3.058594 17.140625 3.140625 L 17.25 3.292969 L 17.25 8.050781 C 17.25 12.558594 17.253906 12.808594 17.335938 12.785156 C 17.609375 12.703125 17.933594 12.660156 18.296875 12.65625 L 18.703125 12.644531 L 18.695312 7.769531 L 18.679688 2.898438 L 18.53125 2.59375 C 18.253906 2.035156 17.667969 1.597656 17.039062 1.488281 C 16.707031 1.429688 4.589844 1.429688 4.273438 1.488281 Z M 4.273438 1.488281 "/>
<path style=" stroke:none;fill-rule:nonzero;fill:rgb(0%,0%,0%);fill-opacity:1;" d="M 6.859375 4.554688 C 6.351562 4.710938 5.855469 5.152344 5.667969 5.605469 C 5.578125 5.8125 5.558594 5.953125 5.554688 6.3125 C 5.554688 6.726562 5.570312 6.78125 5.699219 7.050781 C 5.886719 7.421875 6.109375 7.664062 6.425781 7.847656 C 7.515625 8.472656 8.875 7.972656 9.242188 6.816406 C 9.511719 5.960938 9.0625 5.011719 8.203125 4.636719 C 7.890625 4.496094 7.179688 4.457031 6.859375 4.554688 Z M 7.71875 6.027344 C 7.964844 6.25 7.785156 6.691406 7.453125 6.691406 C 7.246094 6.691406 7.125 6.621094 7.050781 6.445312 C 6.96875 6.257812 7.015625 6.117188 7.203125 5.980469 C 7.359375 5.859375 7.554688 5.878906 7.71875 6.027344 Z M 7.71875 6.027344 "/>
<path style=" stroke:none;fill-rule:nonzero;fill:rgb(0%,0%,0%);fill-opacity:1;" d="M 10.9375 5.609375 C 10.285156 5.769531 10.140625 6.578125 10.710938 6.894531 L 10.90625 7.007812 L 13.074219 7.007812 C 15.496094 7.007812 15.460938 7.011719 15.683594 6.699219 C 15.917969 6.367188 15.796875 5.898438 15.421875 5.6875 C 15.261719 5.597656 15.183594 5.59375 13.171875 5.582031 C 12.023438 5.578125 11.015625 5.59375 10.9375 5.609375 Z M 10.9375 5.609375 "/>
<path style=" stroke:none;fill-rule:nonzero;fill:rgb(0%,0%,0%);fill-opacity:1;" d="M 6.914062 8.683594 C 6.054688 8.957031 5.53125 9.625 5.53125 10.445312 C 5.53125 11.171875 5.945312 11.777344 6.65625 12.101562 C 6.933594 12.226562 7.003906 12.242188 7.429688 12.242188 C 7.859375 12.242188 7.925781 12.226562 8.210938 12.097656 C 8.625 11.914062 8.960938 11.589844 9.15625 11.195312 C 9.289062 10.921875 9.304688 10.859375 9.304688 10.445312 C 9.304688 10.03125 9.289062 9.96875 9.15625 9.695312 C 8.960938 9.304688 8.621094 8.976562 8.222656 8.796875 C 7.96875 8.683594 7.84375 8.65625 7.507812 8.644531 C 7.25 8.628906 7.03125 8.648438 6.914062 8.683594 Z M 7.710938 10.175781 C 7.789062 10.246094 7.828125 10.332031 7.828125 10.445312 C 7.828125 10.804688 7.398438 10.964844 7.128906 10.714844 C 6.976562 10.566406 6.96875 10.332031 7.125 10.175781 C 7.273438 10.023438 7.550781 10.015625 7.710938 10.175781 Z M 7.710938 10.175781 "/>
<path style=" stroke:none;fill-rule:nonzero;fill:rgb(0%,0%,0%);fill-opacity:1;" d="M 10.734375 9.828125 C 10.246094 10.0625 10.222656 10.773438 10.695312 11.050781 C 10.847656 11.136719 10.941406 11.140625 13.078125 11.140625 C 15.214844 11.140625 15.308594 11.136719 15.460938 11.050781 C 15.914062 10.78125 15.914062 10.105469 15.460938 9.835938 C 15.308594 9.753906 15.214844 9.746094 13.101562 9.746094 C 11.09375 9.746094 10.882812 9.757812 10.734375 9.828125 Z M 10.734375 9.828125 "/>
<path style=" stroke:none;fill-rule:nonzero;fill:rgb(0%,0%,0%);fill-opacity:1;" d="M 6.9375 12.824219 C 6.375 12.976562 5.960938 13.316406 5.699219 13.835938 C 5.570312 14.105469 5.554688 14.164062 5.554688 14.578125 C 5.558594 14.9375 5.578125 15.074219 5.667969 15.285156 C 5.816406 15.652344 6.207031 16.042969 6.601562 16.226562 C 6.894531 16.363281 6.941406 16.375 7.429688 16.375 C 7.917969 16.375 7.964844 16.363281 8.253906 16.230469 C 9.078125 15.839844 9.507812 14.910156 9.242188 14.074219 C 9.066406 13.515625 8.617188 13.054688 8.0625 12.871094 C 7.753906 12.761719 7.246094 12.746094 6.9375 12.824219 Z M 7.710938 14.308594 C 7.890625 14.472656 7.875 14.734375 7.683594 14.886719 C 7.453125 15.070312 7.1875 15.015625 7.054688 14.753906 C 6.988281 14.621094 6.988281 14.585938 7.050781 14.445312 C 7.128906 14.265625 7.234375 14.199219 7.445312 14.195312 C 7.546875 14.195312 7.636719 14.230469 7.710938 14.308594 Z M 7.710938 14.308594 "/>
<path style=" stroke:none;fill-rule:nonzero;fill:rgb(0%,0%,0%);fill-opacity:1;" d="M 14.4375 13.417969 C 14.175781 13.457031 13.691406 13.625 13.425781 13.769531 C 12.234375 14.40625 11.652344 15.832031 12.054688 17.117188 C 12.257812 17.757812 12.355469 17.871094 14.222656 19.667969 C 15.203125 20.613281 16.039062 21.386719 16.148438 21.441406 C 16.433594 21.589844 16.921875 21.582031 17.203125 21.417969 C 17.320312 21.355469 18.1875 20.554688 19.128906 19.644531 C 20.796875 18.035156 20.851562 17.980469 21.042969 17.609375 C 21.324219 17.046875 21.390625 16.746094 21.367188 16.125 C 21.347656 15.722656 21.3125 15.542969 21.226562 15.308594 C 20.890625 14.460938 20.253906 13.847656 19.367188 13.53125 C 19.125 13.445312 18.9375 13.414062 18.515625 13.394531 C 17.875 13.375 17.539062 13.4375 17.015625 13.6875 L 16.664062 13.859375 L 16.375 13.710938 C 15.960938 13.5 15.445312 13.386719 14.957031 13.390625 C 14.738281 13.394531 14.503906 13.410156 14.4375 13.417969 Z M 19.0625 14.957031 C 19.53125 15.179688 19.84375 15.609375 19.898438 16.125 C 19.953125 16.601562 19.621094 16.980469 19.152344 16.980469 C 18.773438 16.980469 18.476562 16.75 18.398438 16.386719 C 18.375 16.292969 18.335938 16.261719 18.261719 16.261719 C 17.984375 16.261719 17.625 15.851562 17.625 15.539062 C 17.625 15.285156 17.808594 15.003906 18.050781 14.878906 C 18.320312 14.742188 18.652344 14.769531 19.0625 14.957031 Z M 19.0625 14.957031 "/>
<path style=" stroke:none;fill-rule:nonzero;fill:rgb(0%,0%,0%);fill-opacity:1;" d="M 10.753906 13.96875 C 10.515625 14.085938 10.359375 14.335938 10.359375 14.609375 C 10.359375 14.972656 10.640625 15.246094 11.070312 15.300781 L 11.289062 15.328125 L 11.367188 15.089844 C 11.46875 14.777344 11.734375 14.316406 11.9375 14.070312 L 12.097656 13.878906 L 11.523438 13.878906 C 11.039062 13.878906 10.914062 13.894531 10.753906 13.96875 Z M 10.753906 13.96875 "/>
</g>
</svg>
