<?xml version="1.0" encoding="UTF-8"?>
<svg version="1.1" xmlns="http://www.w3.org/2000/svg" width="24" height="24">
<path d="M0 0 C4.75 0.75 4.75 0.75 7 3 C7.6328125 5.8203125 7.6328125 5.8203125 8.125 9.125 C8.29257813 10.22070312 8.46015625 11.31640625 8.6328125 12.4453125 C8.75398437 13.28835938 8.87515625 14.13140625 9 15 C11.97 15 14.94 15 18 15 C18.2475 14.030625 18.495 13.06125 18.75 12.0625 C19.1625 11.051875 19.575 10.04125 20 9 C22.125 8.125 22.125 8.125 24 8 C23.39960326 12.20277719 22.39321222 15.99451486 21 20 C20.65023242 21.32911682 20.30903983 22.66082739 20 24 C18.35 23.67 16.7 23.34 15 23 C15 22.01 15 21.02 15 20 C14.01 19.67 13.02 19.34 12 19 C12 20.65 12 22.3 12 24 C10.35 24 8.7 24 7 24 C7.33 22.02 7.66 20.04 8 18 C7.34 18 6.68 18 6 18 C5.60167969 16.60974609 5.60167969 16.60974609 5.1953125 15.19140625 C4.84210937 13.99386719 4.48890625 12.79632813 4.125 11.5625 C3.77695312 10.36753906 3.42890625 9.17257812 3.0703125 7.94140625 C2.3391709 4.88308969 2.3391709 4.88308969 0 4 C0 2.68 0 1.36 0 0 Z " fill="#FFFFFF" transform="translate(0,0)"/>
<path d="M0 0 C2.31 0 4.62 0 7 0 C7.2226746 1.43534841 7.42761906 2.87345525 7.625 4.3125 C7.74101562 5.11300781 7.85703125 5.91351563 7.9765625 6.73828125 C8 9 8 9 6 12 C5.34 11.67 4.68 11.34 4 11 C4 10.01 4 9.02 4 8 C2.68 7.67 1.36 7.34 0 7 C0 4.69 0 2.38 0 0 Z " fill="#FFFFFF" transform="translate(10,0)"/>
</svg>
