<svg fill="#FFFFFF" xmlns="http://www.w3.org/2000/svg"  viewBox="0 0 50 50" width="50px" height="50px"><path d="M 25 2 C 16.175781 2 9 9.175781 9 18 C 9 24.34375 12.863281 31.664063 16.65625 37.5 C 20.449219 43.335938 24.25 47.65625 24.25 47.65625 C 24.441406 47.871094 24.714844 47.996094 25 47.996094 C 25.285156 47.996094 25.558594 47.871094 25.75 47.65625 C 25.75 47.65625 29.550781 43.328125 33.34375 37.5 C 37.136719 31.671875 41 24.375 41 18 C 41 9.175781 33.824219 2 25 2 Z M 25 4 C 32.742188 4 39 10.257813 39 18 C 39 23.539063 35.363281 30.742188 31.65625 36.4375 C 28.546875 41.210938 25.921875 44.355469 25 45.4375 C 24.082031 44.355469 21.457031 41.195313 18.34375 36.40625 C 14.636719 30.703125 11 23.5 11 18 C 11 10.257813 17.257813 4 25 4 Z M 18 13 L 18 26 L 32 26 L 32 13 Z M 20 15 L 30 15 L 30 24 L 20 24 Z M 22.8125 17 C 22.261719 17.050781 21.855469 17.542969 21.90625 18.09375 C 21.957031 18.644531 22.449219 19.050781 23 19 L 27 19 C 27.359375 19.003906 27.695313 18.816406 27.878906 18.503906 C 28.058594 18.191406 28.058594 17.808594 27.878906 17.496094 C 27.695313 17.183594 27.359375 16.996094 27 17 L 23 17 C 22.96875 17 22.9375 17 22.90625 17 C 22.875 17 22.84375 17 22.8125 17 Z"/></svg>